<svg width="128" height="26" viewBox="0 0 128 26" fill="none" xmlns="http://www.w3.org/2000/svg">
<g clip-path="url(#clip0)">
<path d="M13.0389 19.3559L12.7701 19.4576C11.7283 19.8305 10.821 20 9.8464 20C7.72925 20 6.92272 19.1526 6.92272 16.8814V11.2543H13.1733V8.54239H6.88912V4.30511H4.13347L3.76381 8.54239L0 8.67799V11.2543H3.66299V16.8814C3.66299 20.8475 5.47769 22.7797 9.2079 22.7797C10.989 22.7797 12.3668 22.3729 13.4758 22L13.711 21.8983L13.0389 19.3559Z" fill="#333333"/>
<path d="M23.2212 8.20341C20.6 8.20341 18.2476 9.42375 17.105 10.1356L16.8698 10.2712L18.1804 12.5763L18.4156 12.4407C20.0959 11.4576 21.4737 10.9831 22.7507 10.9831C24.5654 10.9831 25.5736 11.7966 25.7752 13.4237C19.155 13.9322 16.4329 15.4576 16.4329 18.6441C16.4329 21.0848 18.382 22.7797 21.1713 22.7797C23.1876 22.7797 25.0359 21.6949 26.1113 20.8814L26.3129 22.4407H29.0686V14.1017C29.0686 10.339 26.9178 8.20341 23.2212 8.20341ZM25.8088 15.6949V18.3729C24.3974 19.4915 23.1876 20.0339 21.9442 20.0339C21.2385 20.0339 19.6254 19.8644 19.6254 18.4068C19.6254 17.3221 20.3648 16.1356 25.8088 15.6949Z" fill="#333333"/>
<path d="M41.9394 19.2882L41.6706 19.4238C40.864 19.7967 40.1247 19.9661 39.419 19.9661C37.9404 19.9661 37.201 19.1865 37.201 17.6611V2.50851H29.371V5.22038H33.9413V17.4577C33.9413 20.8475 35.6552 22.7458 38.7805 22.7458C40.2591 22.7458 41.1665 22.4746 42.5443 21.9661L42.7795 21.8644L41.9394 19.2882Z" fill="#333333"/>
<path d="M51.0132 8.20341C47.5854 8.20341 43.956 10.7458 43.956 15.4577C43.956 19.8305 46.9469 22.7458 51.4164 22.7458C53.7688 22.7458 55.6171 21.8644 56.7261 21.1187L56.9277 20.9831L55.7179 18.7797L55.4827 18.9153C54.1721 19.6949 53.0295 20.0678 51.7525 20.0678C49.1985 20.0678 47.5854 18.7797 47.2158 16.5085H57.1966L57.2302 16.2712C57.2974 15.8983 57.3646 15.3221 57.3646 14.7458C57.3646 10.7797 54.8778 8.20341 51.0132 8.20341ZM51.0804 10.8475C52.9623 10.8475 54.1049 11.9322 54.3737 13.9661H47.3166C47.7534 12.0678 49.1649 10.8475 51.0804 10.8475Z" fill="#333333"/>
<path d="M67.9837 8.20341C65.8665 8.20341 64.3543 9.32205 63.2117 10.4407L63.01 8.54239H60.288V22.4407H63.5477V13.0509C64.8247 11.7627 65.7321 11.0848 67.0427 11.0848C68.7902 11.0848 69.4959 12 69.4959 14.2034V22.4068H72.7556V13.8644C72.7556 10.1017 71.1426 8.20341 67.9837 8.20341Z" fill="#333333"/>
<path d="M87.7103 19.3559L87.4415 19.4576C86.3997 19.8305 85.4923 20 84.5178 20C82.4006 20 81.5941 19.1526 81.5941 16.8814V11.2543H87.8447V8.54239H81.5941V4.30511H78.8385L78.4688 8.54239L74.705 8.67799V11.2543H78.368V16.8814C78.368 20.8475 80.1827 22.7797 83.9129 22.7797C85.694 22.7797 87.0718 22.3729 88.1808 22L88.416 21.8983L87.7103 19.3559Z" fill="#333333"/>
<path d="M100.044 23.2203H95.5741V2.74576H100.01V0H92.7848V26H100.044V23.2203Z" fill="#30308C"/>
<path d="M127.029 0H119.803V2.74576H124.239V6.74576H127.029V0Z" fill="#FF0000"/>
<path d="M127.029 8.67793H124.239V23.2203H119.736V26H127.029V8.67793Z" fill="#30308C"/>
<path d="M111.033 21.0169L110.293 18.7118L110.024 18.8474C109.319 19.1525 108.68 19.322 108.075 19.322C106.832 19.322 106.193 18.6441 106.193 17.3559V4.16947H99.3379V6.61015H103.27V17.1864C103.27 20.1695 104.782 21.7966 107.504 21.7966C108.815 21.7966 109.588 21.5593 110.764 21.1186L111.033 21.0169Z" fill="#30308C"/>
<path d="M118.224 8.94913L115.872 15.1525L115.435 16.3729C115.267 16.8813 115.065 17.4237 114.897 17.9661C114.527 16.983 114.124 16 113.754 15.1525L111.133 8.94913H108.21L113.586 20.7457L113.318 21.4237C112.78 22.7796 111.873 23.4576 110.629 23.4576C110.36 23.4576 110.024 23.3898 109.722 23.322L109.453 23.2203L108.848 25.5932L109.083 25.661C109.554 25.8305 110.159 25.9322 110.73 25.9322C113.99 25.9322 115.3 23.4576 115.972 21.6271L121.047 8.91523H118.224V8.94913Z" fill="#30308C"/>
</g>
<defs>
<clipPath id="clip0">
<rect width="127.029" height="26" fill="white"/>
</clipPath>
</defs>
</svg>
