<svg width="38" height="38" viewBox="0 0 38 38" fill="none" xmlns="http://www.w3.org/2000/svg">
<circle cx="19" cy="19" r="19" fill="#30308C"/>
<path d="M26.1594 27.0543V25.2645C26.1594 24.3151 25.7822 23.4046 25.1109 22.7332C24.4396 22.0619 23.529 21.6848 22.5796 21.6848H15.4202C14.4708 21.6848 13.5603 22.0619 12.889 22.7332C12.2177 23.4046 11.8405 24.3151 11.8405 25.2645V27.0543" stroke="white" stroke-width="2" stroke-linecap="round" stroke-linejoin="round"/>
<path d="M18.9999 18.105C20.977 18.105 22.5797 16.5023 22.5797 14.5253C22.5797 12.5483 20.977 10.9456 18.9999 10.9456C17.0229 10.9456 15.4202 12.5483 15.4202 14.5253C15.4202 16.5023 17.0229 18.105 18.9999 18.105Z" stroke="white" stroke-width="2" stroke-linecap="round" stroke-linejoin="round"/>
</svg>
